<?xml version="1.0" encoding="utf-8" standalone="no"?>
<!DOCTYPE svg PUBLIC "-//W3C//DTD SVG 1.1//EN"
  "http://www.w3.org/Graphics/SVG/1.1/DTD/svg11.dtd">
<svg xmlns:xlink="http://www.w3.org/1999/xlink" width="360pt" height="360pt" viewBox="0 0 360 360" xmlns="http://www.w3.org/2000/svg" version="1.1">
 <metadata>
  <rdf:RDF xmlns:dc="http://purl.org/dc/elements/1.1/" xmlns:cc="http://creativecommons.org/ns#" xmlns:rdf="http://www.w3.org/1999/02/22-rdf-syntax-ns#">
   <cc:Work>
    <dc:type rdf:resource="http://purl.org/dc/dcmitype/StillImage"/>
    <dc:date>2022-05-27T14:08:37.793638</dc:date>
    <dc:format>image/svg+xml</dc:format>
    <dc:creator>
     <cc:Agent>
      <dc:title>Matplotlib v3.5.2, https://matplotlib.org/</dc:title>
     </cc:Agent>
    </dc:creator>
   </cc:Work>
  </rdf:RDF>
 </metadata>
 <defs>
  <style type="text/css">*{stroke-linejoin: round; stroke-linecap: butt}</style>
 </defs>
 <g id="figure_1">
  <g id="patch_1">
   <path d="M 0 360 
L 360 360 
L 360 0 
L 0 0 
L 0 360 
z
" style="fill: none"/>
  </g>
  <g id="axes_1">
   <g id="patch_2">
    <path d="M 48.6 315 
L 320.4 315 
L 320.4 43.2 
L 48.6 43.2 
L 48.6 315 
z
" style="fill: none"/>
   </g>
   <g id="Quiver_1">
    <path d="M 184.5 178.08075 
L 220.62675 178.08075 
L 219.6075 176.04225 
L 229.8 179.1 
L 219.6075 182.15775 
L 220.62675 180.11925 
L 184.5 180.11925 
L 184.5 178.08075 
" clip-path="url(#p094ff44bb5)" style="fill: #0000ff"/>
   </g>
   <g id="Quiver_2">
    <path d="M 183.48075 179.1 
L 183.48075 142.97325 
L 181.44225 143.9925 
L 184.5 133.8 
L 187.55775 143.9925 
L 185.51925 142.97325 
L 185.51925 179.1 
L 183.48075 179.1 
" clip-path="url(#p094ff44bb5)" style="fill: #ff0000"/>
   </g>
   <g id="matplotlib.axis_1">
    <g id="xtick_1">
     <g id="line2d_1">
      <defs>
       <path id="md3b45586e4" d="M 0 0 
L 0 2 
" style="stroke: #000000; stroke-width: 0.6"/>
      </defs>
      <g>
       <use xlink:href="#md3b45586e4" x="48.6" y="179.1" style="stroke: #000000; stroke-width: 0.6"/>
      </g>
     </g>
    </g>
    <g id="xtick_2">
     <g id="line2d_2">
      <g>
       <use xlink:href="#md3b45586e4" x="93.9" y="179.1" style="stroke: #000000; stroke-width: 0.6"/>
      </g>
     </g>
    </g>
    <g id="xtick_3">
     <g id="line2d_3">
      <g>
       <use xlink:href="#md3b45586e4" x="139.2" y="179.1" style="stroke: #000000; stroke-width: 0.6"/>
      </g>
     </g>
    </g>
    <g id="xtick_4">
     <g id="line2d_4">
      <g>
       <use xlink:href="#md3b45586e4" x="184.5" y="179.1" style="stroke: #000000; stroke-width: 0.6"/>
      </g>
     </g>
    </g>
    <g id="xtick_5">
     <g id="line2d_5">
      <g>
       <use xlink:href="#md3b45586e4" x="229.8" y="179.1" style="stroke: #000000; stroke-width: 0.6"/>
      </g>
     </g>
    </g>
    <g id="xtick_6">
     <g id="line2d_6">
      <g>
       <use xlink:href="#md3b45586e4" x="275.1" y="179.1" style="stroke: #000000; stroke-width: 0.6"/>
      </g>
     </g>
    </g>
    <g id="xtick_7">
     <g id="line2d_7">
      <g>
       <use xlink:href="#md3b45586e4" x="320.4" y="179.1" style="stroke: #000000; stroke-width: 0.6"/>
      </g>
     </g>
    </g>
    <g id="text_1">
     <!-- $x$ -->
     <g transform="translate(321.636 171.137812)scale(0.14 -0.14)">
      <defs>
       <path id="DejaVuSans-Oblique-78" d="M 3841 3500 
L 2234 1784 
L 3219 0 
L 2559 0 
L 1819 1388 
L 531 0 
L -166 0 
L 1556 1844 
L 641 3500 
L 1300 3500 
L 1972 2234 
L 3144 3500 
L 3841 3500 
z
" transform="scale(0.015625)"/>
      </defs>
      <use xlink:href="#DejaVuSans-Oblique-78" transform="translate(0 0.3125)"/>
     </g>
    </g>
   </g>
   <g id="matplotlib.axis_2">
    <g id="ytick_1">
     <g id="line2d_8">
      <defs>
       <path id="mefce37d991" d="M 0 0 
L -2 0 
" style="stroke: #000000; stroke-width: 0.6"/>
      </defs>
      <g>
       <use xlink:href="#mefce37d991" x="184.5" y="315" style="stroke: #000000; stroke-width: 0.6"/>
      </g>
     </g>
    </g>
    <g id="ytick_2">
     <g id="line2d_9">
      <g>
       <use xlink:href="#mefce37d991" x="184.5" y="269.7" style="stroke: #000000; stroke-width: 0.6"/>
      </g>
     </g>
    </g>
    <g id="ytick_3">
     <g id="line2d_10">
      <g>
       <use xlink:href="#mefce37d991" x="184.5" y="224.4" style="stroke: #000000; stroke-width: 0.6"/>
      </g>
     </g>
    </g>
    <g id="ytick_4">
     <g id="line2d_11">
      <g>
       <use xlink:href="#mefce37d991" x="184.5" y="179.1" style="stroke: #000000; stroke-width: 0.6"/>
      </g>
     </g>
    </g>
    <g id="ytick_5">
     <g id="line2d_12">
      <g>
       <use xlink:href="#mefce37d991" x="184.5" y="133.8" style="stroke: #000000; stroke-width: 0.6"/>
      </g>
     </g>
    </g>
    <g id="ytick_6">
     <g id="line2d_13">
      <g>
       <use xlink:href="#mefce37d991" x="184.5" y="88.5" style="stroke: #000000; stroke-width: 0.6"/>
      </g>
     </g>
    </g>
    <g id="ytick_7">
     <g id="line2d_14">
      <g>
       <use xlink:href="#mefce37d991" x="184.5" y="43.2" style="stroke: #000000; stroke-width: 0.6"/>
      </g>
     </g>
    </g>
    <g id="text_2">
     <!-- $y$ -->
     <g transform="translate(195.9 34.824)scale(0.14 -0.14)">
      <defs>
       <path id="DejaVuSans-Oblique-79" d="M 1588 -325 
Q 1188 -997 936 -1164 
Q 684 -1331 294 -1331 
L -159 -1331 
L -63 -850 
L 269 -850 
Q 509 -850 678 -719 
Q 847 -588 1056 -206 
L 1234 128 
L 459 3500 
L 1069 3500 
L 1650 819 
L 3256 3500 
L 3859 3500 
L 1588 -325 
z
" transform="scale(0.015625)"/>
      </defs>
      <use xlink:href="#DejaVuSans-Oblique-79" transform="translate(0 0.3125)"/>
     </g>
    </g>
   </g>
   <g id="line2d_15">
    <path d="M 139.2 179.1 
L 139.321405 175.785702 
L 139.664783 172.627498 
L 140.22832 169.502689 
L 141.008394 166.42837 
L 142.002286 163.414519 
L 143.20456 160.47806 
L 144.60978 157.632342 
L 146.210698 154.892163 
L 147.99916 152.271309 
L 149.967012 149.7817 
L 152.104287 147.436018 
L 154.400114 145.246095 
L 156.84362 143.222226 
L 159.423028 141.374207 
L 162.125653 139.711187 
L 164.937905 138.241531 
L 167.846194 136.972328 
L 170.836024 135.909888 
L 173.892899 135.059344 
L 177.001416 134.424937 
L 180.147079 134.009623 
L 183.313581 133.815539 
L 186.486425 133.843574 
L 189.649302 134.093615 
L 192.786812 134.56441 
L 195.883551 135.253623 
L 198.925023 136.158078 
L 201.895827 137.273272 
L 204.78056 138.593348 
L 207.566538 140.112504 
L 210.239264 141.822926 
L 212.78515 143.715819 
L 215.192416 145.782353 
L 217.449284 148.012468 
L 219.544883 150.395538 
L 221.468341 152.919248 
L 223.210596 155.571724 
L 224.76259 158.339126 
L 226.117073 161.208404 
L 227.267705 164.166366 
L 228.208142 167.19671 
L 228.933855 170.283963 
L 229.442126 173.417107 
L 229.729331 176.570654 
L 229.8 179.1 
L 229.8 179.1 
" clip-path="url(#p094ff44bb5)" style="fill: none; stroke: #008000; stroke-opacity: 0.5; stroke-width: 1.5; stroke-linecap: square"/>
   </g>
   <g id="line2d_16">
    <path d="M 139.2 179.1 
L 139.321405 182.414298 
L 139.664783 185.572502 
L 140.22832 188.697311 
L 141.008394 191.77163 
L 142.002286 194.785481 
L 143.20456 197.72194 
L 144.60978 200.567658 
L 146.210698 203.307837 
L 147.99916 205.928691 
L 149.967012 208.4183 
L 152.104287 210.763982 
L 154.400114 212.953905 
L 156.84362 214.977774 
L 159.423028 216.825793 
L 162.125653 218.488813 
L 164.937905 219.958469 
L 167.846194 221.227672 
L 170.836024 222.290112 
L 173.892899 223.140656 
L 177.001416 223.775063 
L 180.147079 224.190377 
L 183.313581 224.384461 
L 186.486425 224.356426 
L 189.649302 224.106385 
L 192.786812 223.63559 
L 195.883551 222.946377 
L 198.925023 222.041922 
L 201.895827 220.926728 
L 204.78056 219.606652 
L 207.566538 218.087496 
L 210.239264 216.377074 
L 212.78515 214.484181 
L 215.192416 212.417647 
L 217.449284 210.187532 
L 219.544883 207.804462 
L 221.468341 205.280752 
L 223.210596 202.628276 
L 224.76259 199.860874 
L 226.117073 196.991596 
L 227.267705 194.033634 
L 228.208142 191.00329 
L 228.933855 187.916037 
L 229.442126 184.782893 
L 229.729331 181.629346 
L 229.8 179.1 
L 229.8 179.1 
" clip-path="url(#p094ff44bb5)" style="fill: none; stroke: #008000; stroke-opacity: 0.5; stroke-width: 1.5; stroke-linecap: square"/>
   </g>
   <g id="patch_3">
    <path d="M 184.5 315 
L 184.5 43.2 
" style="fill: none; stroke: #000000; stroke-width: 0.8; stroke-linejoin: miter; stroke-linecap: square"/>
   </g>
   <g id="patch_4">
    <path d="M 48.6 179.1 
L 320.4 179.1 
" style="fill: none; stroke: #000000; stroke-width: 0.8; stroke-linejoin: miter; stroke-linecap: square"/>
   </g>
   <g id="text_3">
    <!-- $O$ -->
    <g transform="translate(170.722 192.455812)scale(0.14 -0.14)">
     <defs>
      <path id="DejaVuSans-Oblique-4f" d="M 2919 4238 
Q 2400 4238 2003 3986 
Q 1606 3734 1313 3219 
Q 1125 2891 1026 2522 
Q 928 2153 928 1778 
Q 928 1128 1239 775 
Q 1550 422 2119 422 
Q 2631 422 3032 676 
Q 3434 931 3719 1434 
Q 3909 1772 4009 2142 
Q 4109 2513 4109 2881 
Q 4109 3528 3796 3883 
Q 3484 4238 2919 4238 
z
M 2100 -91 
Q 1241 -91 748 418 
Q 256 928 256 1813 
Q 256 2319 448 2847 
Q 641 3375 978 3788 
Q 1375 4272 1862 4511 
Q 2350 4750 2938 4750 
Q 3794 4750 4287 4245 
Q 4781 3741 4781 2869 
Q 4781 2331 4593 1812 
Q 4406 1294 4056 872 
Q 3656 384 3173 146 
Q 2691 -91 2100 -91 
z
" transform="scale(0.015625)"/>
     </defs>
     <use xlink:href="#DejaVuSans-Oblique-4f" transform="translate(0 0.78125)"/>
    </g>
   </g>
  </g>
 </g>
 <defs>
  <clipPath id="p094ff44bb5">
   <rect x="48.6" y="43.2" width="271.8" height="271.8"/>
  </clipPath>
 </defs>
</svg>
