<?xml version="1.0" encoding="utf-8" standalone="no"?>
<!DOCTYPE svg PUBLIC "-//W3C//DTD SVG 1.1//EN"
  "http://www.w3.org/Graphics/SVG/1.1/DTD/svg11.dtd">
<svg xmlns:xlink="http://www.w3.org/1999/xlink" width="360pt" height="360pt" viewBox="0 0 360 360" xmlns="http://www.w3.org/2000/svg" version="1.1">
 <metadata>
  <rdf:RDF xmlns:dc="http://purl.org/dc/elements/1.1/" xmlns:cc="http://creativecommons.org/ns#" xmlns:rdf="http://www.w3.org/1999/02/22-rdf-syntax-ns#">
   <cc:Work>
    <dc:type rdf:resource="http://purl.org/dc/dcmitype/StillImage"/>
    <dc:date>2022-05-27T14:18:52.049886</dc:date>
    <dc:format>image/svg+xml</dc:format>
    <dc:creator>
     <cc:Agent>
      <dc:title>Matplotlib v3.5.2, https://matplotlib.org/</dc:title>
     </cc:Agent>
    </dc:creator>
   </cc:Work>
  </rdf:RDF>
 </metadata>
 <defs>
  <style type="text/css">*{stroke-linejoin: round; stroke-linecap: butt}</style>
 </defs>
 <g id="figure_1">
  <g id="patch_1">
   <path d="M 0 360 
L 360 360 
L 360 0 
L 0 0 
L 0 360 
z
" style="fill: none"/>
  </g>
  <g id="axes_1">
   <g id="patch_2">
    <path d="M 48.6 315 
L 320.4 315 
L 320.4 43.2 
L 48.6 43.2 
L 48.6 315 
z
" style="fill: none"/>
   </g>
   <g id="Quiver_1">
    <path d="M 185.506089 178.936734 
L 191.292953 214.596996 
L 193.141865 213.264376 
L 191.756255 223.815062 
L 187.105331 214.24397 
L 189.280775 214.923528 
L 183.493911 179.263266 
L 185.506089 178.936734 
" clip-path="url(#p78c944f076)" style="fill: #0000ff"/>
   </g>
   <g id="Quiver_2">
    <path d="M 184.336734 178.093911 
L 219.996996 172.307047 
L 218.664376 170.458135 
L 229.215062 171.843745 
L 219.64397 176.494669 
L 220.323528 174.319225 
L 184.663266 180.106089 
L 184.336734 178.093911 
" clip-path="url(#p78c944f076)" style="fill: #ff0000"/>
   </g>
   <g id="matplotlib.axis_1">
    <g id="xtick_1">
     <g id="line2d_1">
      <defs>
       <path id="ma4787d71db" d="M 0 0 
L 0 2 
" style="stroke: #000000; stroke-width: 0.6"/>
      </defs>
      <g>
       <use xlink:href="#ma4787d71db" x="48.6" y="179.1" style="stroke: #000000; stroke-width: 0.6"/>
      </g>
     </g>
    </g>
    <g id="xtick_2">
     <g id="line2d_2">
      <g>
       <use xlink:href="#ma4787d71db" x="93.9" y="179.1" style="stroke: #000000; stroke-width: 0.6"/>
      </g>
     </g>
    </g>
    <g id="xtick_3">
     <g id="line2d_3">
      <g>
       <use xlink:href="#ma4787d71db" x="139.2" y="179.1" style="stroke: #000000; stroke-width: 0.6"/>
      </g>
     </g>
    </g>
    <g id="xtick_4">
     <g id="line2d_4">
      <g>
       <use xlink:href="#ma4787d71db" x="184.5" y="179.1" style="stroke: #000000; stroke-width: 0.6"/>
      </g>
     </g>
    </g>
    <g id="xtick_5">
     <g id="line2d_5">
      <g>
       <use xlink:href="#ma4787d71db" x="229.8" y="179.1" style="stroke: #000000; stroke-width: 0.6"/>
      </g>
     </g>
    </g>
    <g id="xtick_6">
     <g id="line2d_6">
      <g>
       <use xlink:href="#ma4787d71db" x="275.1" y="179.1" style="stroke: #000000; stroke-width: 0.6"/>
      </g>
     </g>
    </g>
    <g id="xtick_7">
     <g id="line2d_7">
      <g>
       <use xlink:href="#ma4787d71db" x="320.4" y="179.1" style="stroke: #000000; stroke-width: 0.6"/>
      </g>
     </g>
    </g>
    <g id="text_1">
     <!-- $x$ -->
     <g transform="translate(321.636 171.137812)scale(0.14 -0.14)">
      <defs>
       <path id="DejaVuSans-Oblique-78" d="M 3841 3500 
L 2234 1784 
L 3219 0 
L 2559 0 
L 1819 1388 
L 531 0 
L -166 0 
L 1556 1844 
L 641 3500 
L 1300 3500 
L 1972 2234 
L 3144 3500 
L 3841 3500 
z
" transform="scale(0.015625)"/>
      </defs>
      <use xlink:href="#DejaVuSans-Oblique-78" transform="translate(0 0.3125)"/>
     </g>
    </g>
   </g>
   <g id="matplotlib.axis_2">
    <g id="ytick_1">
     <g id="line2d_8">
      <defs>
       <path id="m4c02985833" d="M 0 0 
L -2 0 
" style="stroke: #000000; stroke-width: 0.6"/>
      </defs>
      <g>
       <use xlink:href="#m4c02985833" x="184.5" y="315" style="stroke: #000000; stroke-width: 0.6"/>
      </g>
     </g>
    </g>
    <g id="ytick_2">
     <g id="line2d_9">
      <g>
       <use xlink:href="#m4c02985833" x="184.5" y="269.7" style="stroke: #000000; stroke-width: 0.6"/>
      </g>
     </g>
    </g>
    <g id="ytick_3">
     <g id="line2d_10">
      <g>
       <use xlink:href="#m4c02985833" x="184.5" y="224.4" style="stroke: #000000; stroke-width: 0.6"/>
      </g>
     </g>
    </g>
    <g id="ytick_4">
     <g id="line2d_11">
      <g>
       <use xlink:href="#m4c02985833" x="184.5" y="179.1" style="stroke: #000000; stroke-width: 0.6"/>
      </g>
     </g>
    </g>
    <g id="ytick_5">
     <g id="line2d_12">
      <g>
       <use xlink:href="#m4c02985833" x="184.5" y="133.8" style="stroke: #000000; stroke-width: 0.6"/>
      </g>
     </g>
    </g>
    <g id="ytick_6">
     <g id="line2d_13">
      <g>
       <use xlink:href="#m4c02985833" x="184.5" y="88.5" style="stroke: #000000; stroke-width: 0.6"/>
      </g>
     </g>
    </g>
    <g id="ytick_7">
     <g id="line2d_14">
      <g>
       <use xlink:href="#m4c02985833" x="184.5" y="43.2" style="stroke: #000000; stroke-width: 0.6"/>
      </g>
     </g>
    </g>
    <g id="text_2">
     <!-- $y$ -->
     <g transform="translate(195.9 34.824)scale(0.14 -0.14)">
      <defs>
       <path id="DejaVuSans-Oblique-79" d="M 1588 -325 
Q 1188 -997 936 -1164 
Q 684 -1331 294 -1331 
L -159 -1331 
L -63 -850 
L 269 -850 
Q 509 -850 678 -719 
Q 847 -588 1056 -206 
L 1234 128 
L 459 3500 
L 1069 3500 
L 1650 819 
L 3256 3500 
L 3859 3500 
L 1588 -325 
z
" transform="scale(0.015625)"/>
      </defs>
      <use xlink:href="#DejaVuSans-Oblique-79" transform="translate(0 0.3125)"/>
     </g>
    </g>
   </g>
   <g id="line2d_15">
    <path d="M 177.243745 134.384938 
L 180.534694 133.973884 
L 183.70712 133.806939 
L 186.881848 133.862661 
L 190.041425 134.140211 
L 193.175562 134.638504 
L 196.266687 135.354885 
L 199.300752 136.286127 
L 202.261986 137.427445 
L 205.135478 138.772999 
L 207.908155 140.316649 
L 210.565902 142.05059 
L 213.095298 143.965986 
L 215.48444 146.053752 
L 217.721772 148.303834 
L 219.796231 150.705175 
L 221.697382 153.245701 
L 223.416053 155.913133 
L 224.943692 158.694172 
L 226.27291 161.575333 
L 227.397054 164.54209 
L 228.310885 167.580609 
L 229.00968 170.675134 
L 229.490241 173.811499 
L 229.750065 176.973588 
L 229.787922 180.145998 
L 229.603652 183.313149 
L 229.198066 186.460226 
L 228.573142 189.571304 
L 227.732194 192.63024 
L 226.678918 195.623586 
L 225.418706 198.53578 
L 223.95806 201.351999 
L 222.303812 204.059204 
L 220.464003 206.644155 
L 218.447383 209.09442 
L 216.264364 211.397294 
L 213.925216 213.541932 
L 211.44215 215.517174 
L 208.826886 217.313775 
L 206.09143 218.923362 
L 203.250857 220.337063 
L 200.319714 221.547929 
L 197.308443 222.551511 
L 194.241621 223.340149 
L 191.756255 223.815062 
L 191.756255 223.815062 
" clip-path="url(#p78c944f076)" style="fill: none; stroke: #008000; stroke-opacity: 0.5; stroke-width: 1.5; stroke-linecap: square"/>
   </g>
   <g id="line2d_16">
    <path d="M 177.243745 134.384938 
L 173.991689 135.035667 
L 170.929269 135.880499 
L 167.935078 136.937299 
L 165.02541 138.199751 
L 162.20968 139.663575 
L 159.503721 141.320693 
L 156.919839 143.163602 
L 154.471482 145.182776 
L 152.170949 147.367958 
L 150.028702 149.709191 
L 148.055662 152.194606 
L 146.261768 154.811574 
L 144.655438 157.547717 
L 143.244457 160.389838 
L 142.035823 163.323951 
L 141.035618 166.335303 
L 140.248659 169.409342 
L 139.678856 172.53075 
L 139.328951 175.684395 
L 139.200666 178.854393 
L 139.294594 182.025964 
L 139.610233 185.182667 
L 140.146139 188.310051 
L 140.899589 191.392035 
L 141.866878 194.413619 
L 143.043234 197.359971 
L 144.423199 200.217293 
L 145.999863 202.971102 
L 147.764977 205.607133 
L 149.710781 208.113795 
L 151.82724 210.47803 
L 154.103497 212.687834 
L 156.528948 214.732994 
L 159.091777 216.603496 
L 161.779753 218.29031 
L 164.578979 219.784677 
L 167.476284 221.079556 
L 170.456554 222.168221 
L 173.505746 223.045607 
L 176.609823 223.707568 
L 179.75168 224.150455 
L 182.915315 224.372274 
L 186.089418 224.372108 
L 189.24825 224.150462 
L 191.756255 223.815062 
L 191.756255 223.815062 
" clip-path="url(#p78c944f076)" style="fill: none; stroke: #008000; stroke-opacity: 0.5; stroke-width: 1.5; stroke-linecap: square"/>
   </g>
   <g id="patch_3">
    <path d="M 184.5 315 
L 184.5 43.2 
" style="fill: none; stroke: #000000; stroke-width: 0.8; stroke-linejoin: miter; stroke-linecap: square"/>
   </g>
   <g id="patch_4">
    <path d="M 48.6 179.1 
L 320.4 179.1 
" style="fill: none; stroke: #000000; stroke-width: 0.8; stroke-linejoin: miter; stroke-linecap: square"/>
   </g>
   <g id="text_3">
    <!-- $O$ -->
    <g transform="translate(170.722 192.455812)scale(0.14 -0.14)">
     <defs>
      <path id="DejaVuSans-Oblique-4f" d="M 2919 4238 
Q 2400 4238 2003 3986 
Q 1606 3734 1313 3219 
Q 1125 2891 1026 2522 
Q 928 2153 928 1778 
Q 928 1128 1239 775 
Q 1550 422 2119 422 
Q 2631 422 3032 676 
Q 3434 931 3719 1434 
Q 3909 1772 4009 2142 
Q 4109 2513 4109 2881 
Q 4109 3528 3796 3883 
Q 3484 4238 2919 4238 
z
M 2100 -91 
Q 1241 -91 748 418 
Q 256 928 256 1813 
Q 256 2319 448 2847 
Q 641 3375 978 3788 
Q 1375 4272 1862 4511 
Q 2350 4750 2938 4750 
Q 3794 4750 4287 4245 
Q 4781 3741 4781 2869 
Q 4781 2331 4593 1812 
Q 4406 1294 4056 872 
Q 3656 384 3173 146 
Q 2691 -91 2100 -91 
z
" transform="scale(0.015625)"/>
     </defs>
     <use xlink:href="#DejaVuSans-Oblique-4f" transform="translate(0 0.78125)"/>
    </g>
   </g>
  </g>
 </g>
 <defs>
  <clipPath id="p78c944f076">
   <rect x="48.6" y="43.2" width="271.8" height="271.8"/>
  </clipPath>
 </defs>
</svg>
