<?xml version="1.0" encoding="utf-8" standalone="no"?>
<!DOCTYPE svg PUBLIC "-//W3C//DTD SVG 1.1//EN"
  "http://www.w3.org/Graphics/SVG/1.1/DTD/svg11.dtd">
<svg xmlns:xlink="http://www.w3.org/1999/xlink" width="360pt" height="360pt" viewBox="0 0 360 360" xmlns="http://www.w3.org/2000/svg" version="1.1">
 <metadata>
  <rdf:RDF xmlns:dc="http://purl.org/dc/elements/1.1/" xmlns:cc="http://creativecommons.org/ns#" xmlns:rdf="http://www.w3.org/1999/02/22-rdf-syntax-ns#">
   <cc:Work>
    <dc:type rdf:resource="http://purl.org/dc/dcmitype/StillImage"/>
    <dc:date>2022-05-27T14:28:05.374632</dc:date>
    <dc:format>image/svg+xml</dc:format>
    <dc:creator>
     <cc:Agent>
      <dc:title>Matplotlib v3.5.2, https://matplotlib.org/</dc:title>
     </cc:Agent>
    </dc:creator>
   </cc:Work>
  </rdf:RDF>
 </metadata>
 <defs>
  <style type="text/css">*{stroke-linejoin: round; stroke-linecap: butt}</style>
 </defs>
 <g id="figure_1">
  <g id="patch_1">
   <path d="M 0 360 
L 360 360 
L 360 0 
L 0 0 
L 0 360 
z
" style="fill: none"/>
  </g>
  <g id="axes_1">
   <g id="patch_2">
    <path d="M 48.6 315 
L 320.4 315 
L 320.4 43.2 
L 48.6 43.2 
L 48.6 315 
z
" style="fill: none"/>
   </g>
   <g id="Quiver_1">
    <path d="M 184.5 178.08075 
L 209.30175 178.08075 
L 208.2825 176.04225 
L 218.475 179.1 
L 208.2825 182.15775 
L 209.30175 180.11925 
L 184.5 180.11925 
L 184.5 178.08075 
" clip-path="url(#pd5670cd2fc)" style="fill: #0000ff"/>
   </g>
   <g id="Quiver_2">
    <path d="M 183.651933 178.534622 
L 246.513529 84.242226 
L 244.252016 83.959537 
L 252.45 77.174999 
L 249.34042 87.351806 
L 248.209663 85.372983 
L 185.348067 179.665378 
L 183.651933 178.534622 
" clip-path="url(#pd5670cd2fc)" style="fill: #ff0000"/>
   </g>
   <g id="matplotlib.axis_1">
    <g id="xtick_1">
     <g id="line2d_1">
      <defs>
       <path id="ma0333a445e" d="M 0 0 
L 0 2 
" style="stroke: #000000; stroke-width: 0.6"/>
      </defs>
      <g>
       <use xlink:href="#ma0333a445e" x="48.6" y="179.1" style="stroke: #000000; stroke-width: 0.6"/>
      </g>
     </g>
    </g>
    <g id="xtick_2">
     <g id="line2d_2">
      <g>
       <use xlink:href="#ma0333a445e" x="82.575" y="179.1" style="stroke: #000000; stroke-width: 0.6"/>
      </g>
     </g>
    </g>
    <g id="xtick_3">
     <g id="line2d_3">
      <g>
       <use xlink:href="#ma0333a445e" x="116.55" y="179.1" style="stroke: #000000; stroke-width: 0.6"/>
      </g>
     </g>
    </g>
    <g id="xtick_4">
     <g id="line2d_4">
      <g>
       <use xlink:href="#ma0333a445e" x="150.525" y="179.1" style="stroke: #000000; stroke-width: 0.6"/>
      </g>
     </g>
    </g>
    <g id="xtick_5">
     <g id="line2d_5">
      <g>
       <use xlink:href="#ma0333a445e" x="184.5" y="179.1" style="stroke: #000000; stroke-width: 0.6"/>
      </g>
     </g>
    </g>
    <g id="xtick_6">
     <g id="line2d_6">
      <g>
       <use xlink:href="#ma0333a445e" x="218.475" y="179.1" style="stroke: #000000; stroke-width: 0.6"/>
      </g>
     </g>
    </g>
    <g id="xtick_7">
     <g id="line2d_7">
      <g>
       <use xlink:href="#ma0333a445e" x="252.45" y="179.1" style="stroke: #000000; stroke-width: 0.6"/>
      </g>
     </g>
    </g>
    <g id="xtick_8">
     <g id="line2d_8">
      <g>
       <use xlink:href="#ma0333a445e" x="286.425" y="179.1" style="stroke: #000000; stroke-width: 0.6"/>
      </g>
     </g>
    </g>
    <g id="xtick_9">
     <g id="line2d_9">
      <g>
       <use xlink:href="#ma0333a445e" x="320.4" y="179.1" style="stroke: #000000; stroke-width: 0.6"/>
      </g>
     </g>
    </g>
    <g id="text_1">
     <!-- $x$ -->
     <g transform="translate(321.636 171.137812)scale(0.14 -0.14)">
      <defs>
       <path id="DejaVuSans-Oblique-78" d="M 3841 3500 
L 2234 1784 
L 3219 0 
L 2559 0 
L 1819 1388 
L 531 0 
L -166 0 
L 1556 1844 
L 641 3500 
L 1300 3500 
L 1972 2234 
L 3144 3500 
L 3841 3500 
z
" transform="scale(0.015625)"/>
      </defs>
      <use xlink:href="#DejaVuSans-Oblique-78" transform="translate(0 0.3125)"/>
     </g>
    </g>
   </g>
   <g id="matplotlib.axis_2">
    <g id="ytick_1">
     <g id="line2d_10">
      <defs>
       <path id="m5933190730" d="M 0 0 
L -2 0 
" style="stroke: #000000; stroke-width: 0.6"/>
      </defs>
      <g>
       <use xlink:href="#m5933190730" x="184.5" y="315" style="stroke: #000000; stroke-width: 0.6"/>
      </g>
     </g>
    </g>
    <g id="ytick_2">
     <g id="line2d_11">
      <g>
       <use xlink:href="#m5933190730" x="184.5" y="281.025" style="stroke: #000000; stroke-width: 0.6"/>
      </g>
     </g>
    </g>
    <g id="ytick_3">
     <g id="line2d_12">
      <g>
       <use xlink:href="#m5933190730" x="184.5" y="247.05" style="stroke: #000000; stroke-width: 0.6"/>
      </g>
     </g>
    </g>
    <g id="ytick_4">
     <g id="line2d_13">
      <g>
       <use xlink:href="#m5933190730" x="184.5" y="213.075" style="stroke: #000000; stroke-width: 0.6"/>
      </g>
     </g>
    </g>
    <g id="ytick_5">
     <g id="line2d_14">
      <g>
       <use xlink:href="#m5933190730" x="184.5" y="179.1" style="stroke: #000000; stroke-width: 0.6"/>
      </g>
     </g>
    </g>
    <g id="ytick_6">
     <g id="line2d_15">
      <g>
       <use xlink:href="#m5933190730" x="184.5" y="145.125" style="stroke: #000000; stroke-width: 0.6"/>
      </g>
     </g>
    </g>
    <g id="ytick_7">
     <g id="line2d_16">
      <g>
       <use xlink:href="#m5933190730" x="184.5" y="111.15" style="stroke: #000000; stroke-width: 0.6"/>
      </g>
     </g>
    </g>
    <g id="ytick_8">
     <g id="line2d_17">
      <g>
       <use xlink:href="#m5933190730" x="184.5" y="77.175" style="stroke: #000000; stroke-width: 0.6"/>
      </g>
     </g>
    </g>
    <g id="ytick_9">
     <g id="line2d_18">
      <g>
       <use xlink:href="#m5933190730" x="184.5" y="43.2" style="stroke: #000000; stroke-width: 0.6"/>
      </g>
     </g>
    </g>
    <g id="text_2">
     <!-- $y$ -->
     <g transform="translate(195.9 34.824)scale(0.14 -0.14)">
      <defs>
       <path id="DejaVuSans-Oblique-79" d="M 1588 -325 
Q 1188 -997 936 -1164 
Q 684 -1331 294 -1331 
L -159 -1331 
L -63 -850 
L 269 -850 
Q 509 -850 678 -719 
Q 847 -588 1056 -206 
L 1234 128 
L 459 3500 
L 1069 3500 
L 1650 819 
L 3256 3500 
L 3859 3500 
L 1588 -325 
z
" transform="scale(0.015625)"/>
      </defs>
      <use xlink:href="#DejaVuSans-Oblique-79" transform="translate(0 0.3125)"/>
     </g>
    </g>
   </g>
   <g id="line2d_19">
    <path d="M 150.525 179.1 
L 156.904348 169.746041 
L 163.321774 160.738593 
L 169.911359 151.872456 
L 176.596463 143.249341 
L 183.300106 134.963312 
L 189.941335 127.105221 
L 196.448537 119.746815 
L 202.755263 112.946995 
L 208.797411 106.755028 
L 214.527265 101.196624 
L 219.903712 96.285545 
L 224.898063 92.018958 
L 229.491529 88.381217 
L 233.676195 85.344446 
L 237.454072 82.870973 
L 240.834012 80.916941 
L 243.833453 79.432751 
L 246.47441 78.367035 
L 248.783971 77.667945 
L 250.791814 77.285872 
L 252.529654 77.175281 
L 254.030409 77.296987 
L 255.326534 77.620652 
L 256.447428 78.126643 
L 257.417879 78.807337 
L 258.255839 79.667401 
L 258.971168 80.723641 
L 259.563362 82.001278 
L 260.023016 83.532766 
L 260.332505 85.355752 
L 260.467043 87.510474 
L 260.396299 90.037333 
L 260.085992 92.976538 
L 259.49893 96.36757 
L 258.596891 100.244316 
L 257.341675 104.636559 
L 255.696387 109.568042 
L 253.628234 115.051263 
L 251.108843 121.09005 
L 248.117908 127.673071 
L 244.640925 134.781313 
L 240.675101 142.377172 
L 236.22934 150.407545 
L 231.317439 158.817081 
L 225.9779 167.51541 
L 220.285904 176.365298 
L 218.475 179.1 
L 218.475 179.1 
" clip-path="url(#pd5670cd2fc)" style="fill: none; stroke: #008000; stroke-opacity: 0.5; stroke-width: 1.5; stroke-linecap: square"/>
   </g>
   <g id="line2d_20">
    <path d="M 150.525 179.1 
L 144.446488 188.431813 
L 138.934733 197.304886 
L 133.838121 205.927274 
L 129.194912 214.215087 
L 125.037317 222.085355 
L 121.378766 229.480218 
L 118.224718 236.348678 
L 115.56737 242.658612 
L 113.388827 248.393037 
L 111.663053 253.548195 
L 110.357491 258.132153 
L 109.434351 262.164901 
L 108.853024 265.674736 
L 108.57168 268.696885 
L 108.548978 271.270936 
L 108.74577 273.441338 
L 109.12695 275.252598 
L 109.66307 276.748889 
L 110.332274 277.972166 
L 111.121198 278.958784 
L 112.026883 279.738665 
L 113.055875 280.331546 
L 114.224157 280.746071 
L 115.553343 280.978355 
L 117.071125 281.013365 
L 118.805924 280.825794 
L 120.788187 280.382203 
L 123.046975 279.643078 
L 125.611098 278.564185 
L 128.506194 277.098912 
L 131.755326 275.199415 
L 135.376716 272.818996 
L 139.382083 269.914592 
L 143.777625 266.447351 
L 148.561213 262.385809 
L 153.720111 257.70932 
L 159.23369 252.407037 
L 165.071812 246.480339 
L 171.192099 239.946926 
L 177.540587 232.84188 
L 184.059474 225.210111 
L 190.679331 217.116013 
L 197.32315 208.640442 
L 203.916353 199.868767 
L 210.38238 190.89646 
L 216.639634 181.834702 
L 218.475 179.1 
L 218.475 179.1 
" clip-path="url(#pd5670cd2fc)" style="fill: none; stroke: #008000; stroke-opacity: 0.5; stroke-width: 1.5; stroke-linecap: square"/>
   </g>
   <g id="patch_3">
    <path d="M 184.5 315 
L 184.5 43.2 
" style="fill: none; stroke: #000000; stroke-width: 0.8; stroke-linejoin: miter; stroke-linecap: square"/>
   </g>
   <g id="patch_4">
    <path d="M 48.6 179.1 
L 320.4 179.1 
" style="fill: none; stroke: #000000; stroke-width: 0.8; stroke-linejoin: miter; stroke-linecap: square"/>
   </g>
   <g id="text_3">
    <!-- $O$ -->
    <g transform="translate(170.722 192.455812)scale(0.14 -0.14)">
     <defs>
      <path id="DejaVuSans-Oblique-4f" d="M 2919 4238 
Q 2400 4238 2003 3986 
Q 1606 3734 1313 3219 
Q 1125 2891 1026 2522 
Q 928 2153 928 1778 
Q 928 1128 1239 775 
Q 1550 422 2119 422 
Q 2631 422 3032 676 
Q 3434 931 3719 1434 
Q 3909 1772 4009 2142 
Q 4109 2513 4109 2881 
Q 4109 3528 3796 3883 
Q 3484 4238 2919 4238 
z
M 2100 -91 
Q 1241 -91 748 418 
Q 256 928 256 1813 
Q 256 2319 448 2847 
Q 641 3375 978 3788 
Q 1375 4272 1862 4511 
Q 2350 4750 2938 4750 
Q 3794 4750 4287 4245 
Q 4781 3741 4781 2869 
Q 4781 2331 4593 1812 
Q 4406 1294 4056 872 
Q 3656 384 3173 146 
Q 2691 -91 2100 -91 
z
" transform="scale(0.015625)"/>
     </defs>
     <use xlink:href="#DejaVuSans-Oblique-4f" transform="translate(0 0.78125)"/>
    </g>
   </g>
  </g>
 </g>
 <defs>
  <clipPath id="pd5670cd2fc">
   <rect x="48.6" y="43.2" width="271.8" height="271.8"/>
  </clipPath>
 </defs>
</svg>
