<?xml version="1.0" encoding="utf-8" standalone="no"?>
<!DOCTYPE svg PUBLIC "-//W3C//DTD SVG 1.1//EN"
  "http://www.w3.org/Graphics/SVG/1.1/DTD/svg11.dtd">
<svg xmlns:xlink="http://www.w3.org/1999/xlink" width="720pt" height="720pt" viewBox="0 0 720 720" xmlns="http://www.w3.org/2000/svg" version="1.1">
 <metadata>
  <rdf:RDF xmlns:dc="http://purl.org/dc/elements/1.1/" xmlns:cc="http://creativecommons.org/ns#" xmlns:rdf="http://www.w3.org/1999/02/22-rdf-syntax-ns#">
   <cc:Work>
    <dc:type rdf:resource="http://purl.org/dc/dcmitype/StillImage"/>
    <dc:date>2022-05-27T14:35:04.037092</dc:date>
    <dc:format>image/svg+xml</dc:format>
    <dc:creator>
     <cc:Agent>
      <dc:title>Matplotlib v3.5.2, https://matplotlib.org/</dc:title>
     </cc:Agent>
    </dc:creator>
   </cc:Work>
  </rdf:RDF>
 </metadata>
 <defs>
  <style type="text/css">*{stroke-linejoin: round; stroke-linecap: butt}</style>
 </defs>
 <g id="figure_1">
  <g id="patch_1">
   <path d="M 0 720 
L 720 720 
L 720 0 
L 0 0 
L 0 720 
z
" style="fill: none"/>
  </g>
  <g id="axes_1">
   <g id="Quiver_1">
    <path d="M 216.818182 208.994318 
L 297.931951 208.994318 
L 296.980815 207.092045 
L 306.492178 209.945455 
L 296.980815 212.798864 
L 297.931951 210.896591 
L 216.818182 210.896591 
L 216.818182 208.994318 
" clip-path="url(#paaef03edea)" style="fill: #ff0000"/>
   </g>
   <g id="Quiver_2">
    <path d="M 215.867045 209.945455 
L 215.867045 131.145853 
L 213.964773 132.096989 
L 216.818182 122.585626 
L 219.671591 132.096989 
L 217.769318 131.145853 
L 217.769318 209.945455 
L 215.867045 209.945455 
" clip-path="url(#paaef03edea)" style="fill: #0000ff"/>
   </g>
   <g id="line2d_1">
    <path d="M 127.144185 209.945455 
L 127.26973 205.324402 
L 127.617669 200.980009 
L 128.186208 196.666414 
L 128.975347 192.381257 
L 129.981499 188.144053 
L 131.204665 183.955269 
L 132.641256 179.829307 
L 134.287687 175.777178 
L 136.140371 171.808341 
L 138.193926 167.934641 
L 140.444766 164.163261 
L 142.88751 160.503991 
L 145.516778 156.965666 
L 148.325395 153.558548 
L 151.307982 150.289805 
L 154.457364 147.168116 
L 157.764574 144.202928 
L 161.222438 141.401132 
L 164.821989 138.770488 
L 168.556051 136.316834 
L 172.413865 134.047822 
L 176.386463 131.969177 
L 180.463083 130.086938 
L 184.632966 128.406342 
L 188.887143 126.931344 
L 193.21306 125.666598 
L 197.601749 124.615028 
L 202.040656 123.779974 
L 206.517227 123.163913 
L 211.0207 122.768386 
L 215.540315 122.594496 
L 220.063516 122.642854 
L 224.57775 122.913298 
L 229.072256 123.405131 
L 233.534479 124.116896 
L 237.953657 125.046752 
L 242.317238 126.191866 
L 246.614459 127.549137 
L 250.834559 129.114909 
L 254.966778 130.88492 
L 259.000355 132.854238 
L 262.926322 135.018221 
L 266.732124 137.369513 
L 270.410588 139.903177 
L 273.950953 142.611327 
L 277.346044 145.487966 
L 280.586895 148.525067 
L 283.664537 151.713526 
L 286.573591 155.047176 
L 289.305088 158.515102 
L 291.853649 162.109631 
L 294.213892 165.822663 
L 296.378644 169.642106 
L 298.344317 173.56073 
L 300.105532 177.566994 
L 301.658701 181.651683 
L 303.000238 185.80434 
L 304.128348 190.019433 
L 305.037651 194.274837 
L 305.728148 198.565993 
L 306.199838 202.897169 
L 306.449134 207.239021 
L 306.492178 209.945455 
L 306.492178 209.945455 
" clip-path="url(#paaef03edea)" style="fill: none; stroke: #008000; stroke-opacity: 0.5; stroke-width: 1.5; stroke-linecap: square"/>
   </g>
   <g id="line2d_2">
    <path d="M 127.144185 209.945455 
L 127.26973 214.566507 
L 127.617669 218.9109 
L 128.186208 223.224495 
L 128.975347 227.509652 
L 129.981499 231.746856 
L 131.204665 235.93564 
L 132.641256 240.061602 
L 134.287687 244.113731 
L 136.140371 248.082568 
L 138.193926 251.956268 
L 140.444766 255.727648 
L 142.88751 259.386918 
L 145.516778 262.925243 
L 148.325395 266.332361 
L 151.307982 269.601104 
L 154.457364 272.722793 
L 157.764574 275.687981 
L 161.222438 278.489777 
L 164.821989 281.120421 
L 168.556051 283.574075 
L 172.413865 285.843087 
L 176.386463 287.921733 
L 180.463083 289.803971 
L 184.632966 291.484567 
L 188.887143 292.959566 
L 193.21306 294.224311 
L 197.601749 295.275881 
L 202.040656 296.110935 
L 206.517227 296.726996 
L 211.0207 297.122523 
L 215.540315 297.296413 
L 220.063516 297.248055 
L 224.57775 296.977611 
L 229.072256 296.485778 
L 233.534479 295.774013 
L 237.953657 294.844157 
L 242.317238 293.699043 
L 246.614459 292.341772 
L 250.834559 290.776 
L 254.966778 289.005989 
L 259.000355 287.036671 
L 262.926322 284.872688 
L 266.732124 282.521396 
L 270.410588 279.987732 
L 273.950953 277.279582 
L 277.346044 274.402943 
L 280.586895 271.365842 
L 283.664537 268.177383 
L 286.573591 264.843733 
L 289.305088 261.375807 
L 291.853649 257.781278 
L 294.213892 254.068246 
L 296.378644 250.248803 
L 298.344317 246.33018 
L 300.105532 242.323915 
L 301.658701 238.239226 
L 303.000238 234.086569 
L 304.128348 229.871476 
L 305.037651 225.616072 
L 305.728148 221.324916 
L 306.199838 216.99374 
L 306.449134 212.651889 
L 306.492178 209.945455 
L 306.492178 209.945455 
" clip-path="url(#paaef03edea)" style="fill: none; stroke: #008000; stroke-opacity: 0.5; stroke-width: 1.5; stroke-linecap: square"/>
   </g>
  </g>
  <g id="axes_2">
   <g id="Quiver_3">
    <path d="M 521.181818 208.994318 
L 546.515176 208.994318 
L 545.564039 207.092045 
L 555.075403 209.945455 
L 545.564039 212.798864 
L 546.515176 210.896591 
L 521.181818 210.896591 
L 521.181818 208.994318 
" clip-path="url(#p1eadeed0e1)" style="fill: #ff0000"/>
   </g>
   <g id="Quiver_4">
    <path d="M 520.396881 209.408301 
L 583.349669 117.416001 
L 581.242641 117.126632 
L 588.968988 110.88872 
L 585.952264 120.349553 
L 584.919543 118.490308 
L 521.966755 210.482608 
L 520.396881 209.408301 
" clip-path="url(#p1eadeed0e1)" style="fill: #0000ff"/>
   </g>
   <g id="line2d_3">
    <path d="M 487.288233 209.945455 
L 493.683002 200.811834 
L 500.11884 192.01443 
L 506.728143 183.355812 
L 513.438323 174.930165 
L 520.166349 166.837029 
L 526.834772 159.160852 
L 533.36577 151.978704 
L 539.691721 145.348786 
L 545.751825 139.315371 
L 551.493019 133.908447 
L 556.87736 129.137896 
L 561.873759 125.002592 
L 566.464596 121.485686 
L 570.641573 118.559682 
L 574.406529 116.187222 
L 577.77043 114.323554 
L 580.750354 112.91995 
L 583.369057 111.925325 
L 585.654236 111.28831 
L 587.637528 110.959702 
L 589.350642 110.895145 
L 590.826409 111.056572 
L 592.097637 111.41486 
L 593.193746 111.951783 
L 594.139209 112.661296 
L 594.951331 113.54981 
L 595.63806 114.634435 
L 596.1981 115.941834 
L 596.620531 117.504801 
L 596.886317 119.361057 
L 596.969387 121.549694 
L 596.838415 124.111534 
L 596.458049 127.086349 
L 595.790723 130.510213 
L 594.797617 134.417069 
L 593.440141 138.835576 
L 591.681937 143.78617 
L 589.490805 149.279254 
L 586.839383 155.316182 
L 583.70744 161.885901 
L 580.084172 168.962597 
L 575.968936 176.506592 
L 571.374113 184.461166 
L 566.320344 192.762473 
L 560.850567 201.318053 
L 555.075403 209.945455 
L 555.075403 209.945455 
" clip-path="url(#p1eadeed0e1)" style="fill: none; stroke: #008000; stroke-opacity: 0.5; stroke-width: 1.5; stroke-linecap: square"/>
   </g>
   <g id="line2d_4">
    <path d="M 487.288233 209.945455 
L 481.182241 219.079075 
L 475.65807 227.74683 
L 470.555809 236.162584 
L 465.913072 244.244627 
L 461.759107 251.916538 
L 458.109856 259.116392 
L 454.968151 265.798443 
L 452.324889 271.933402 
L 450.163021 277.501602 
L 448.454948 282.501771 
L 447.167086 286.943363 
L 446.261227 290.84556 
L 445.695742 294.238483 
L 445.42848 297.156983 
L 445.417903 299.640957 
L 445.624946 301.733624 
L 446.014776 303.478948 
L 446.558774 304.920733 
L 447.236062 306.099391 
L 448.034825 307.05002 
L 448.953609 307.800501 
L 450.001178 308.368731 
L 451.19448 308.760655 
L 452.556579 308.970305 
L 454.115367 308.980697 
L 455.900681 308.76507 
L 457.94293 308.288893 
L 460.27264 307.511521 
L 462.917394 306.388685 
L 465.903089 304.873627 
L 469.251853 302.919154 
L 472.980564 300.479798 
L 477.099125 297.514344 
L 481.612916 293.985213 
L 486.515565 289.865062 
L 491.794171 285.134114 
L 497.424316 279.785456 
L 503.37084 273.825889 
L 509.586906 267.278289 
L 516.018109 260.178574 
L 522.600001 252.579315 
L 529.259923 244.549047 
L 535.925664 236.162584 
L 542.512781 227.517564 
L 548.946262 218.707756 
L 555.075403 209.945455 
L 555.075403 209.945455 
" clip-path="url(#p1eadeed0e1)" style="fill: none; stroke: #008000; stroke-opacity: 0.5; stroke-width: 1.5; stroke-linecap: square"/>
   </g>
  </g>
  <g id="axes_3">
   <g id="Quiver_5">
    <path d="M 217.756391 506.298262 
L 230.714021 584.086173 
L 232.434156 582.835398 
L 231.182364 592.686337 
L 226.804903 583.773098 
L 228.837604 584.39874 
L 215.879973 506.610829 
L 217.756391 506.298262 
" clip-path="url(#p739eb1c212)" style="fill: #ff0000"/>
   </g>
   <g id="Quiver_6">
    <path d="M 216.669661 505.515076 
L 296.730517 492.858268 
L 295.494007 491.12785 
L 305.334259 492.461052 
L 296.38513 496.764664 
L 297.027558 494.737206 
L 216.966702 507.394014 
L 216.669661 505.515076 
" clip-path="url(#p739eb1c212)" style="fill: #0000ff"/>
   </g>
   <g id="line2d_5">
    <path d="M 202.454 420.222754 
L 207.223269 419.596226 
L 211.735284 419.235166 
L 216.263213 419.09639 
L 220.783063 419.180149 
L 225.297039 419.486096 
L 229.78842 420.013333 
L 234.245095 420.760235 
L 238.656756 421.724892 
L 243.010048 422.904105 
L 247.297185 424.295564 
L 251.503955 425.894436 
L 255.621218 427.696856 
L 259.637702 429.697525 
L 263.545688 431.892354 
L 267.333214 434.274382 
L 270.98979 436.836419 
L 274.507857 439.572579 
L 277.878481 442.475424 
L 281.093512 445.537392 
L 284.145442 448.750819 
L 287.026031 452.106388 
L 289.729119 455.596223 
L 292.247859 459.210784 
L 294.576145 462.940418 
L 296.709396 466.776998 
L 298.642499 470.710712 
L 300.370929 474.731655 
L 301.890136 478.828156 
L 303.19742 482.991791 
L 304.289831 487.212406 
L 305.164907 491.47977 
L 305.820672 495.783575 
L 306.255632 500.113437 
L 306.468736 504.45713 
L 306.459691 508.805853 
L 306.228496 513.148983 
L 305.77568 517.475817 
L 305.102332 521.775563 
L 304.209703 526.039172 
L 303.100353 530.253849 
L 301.776015 534.41224 
L 300.240587 538.501338 
L 298.496609 542.513661 
L 296.5486 546.437875 
L 294.40096 550.264433 
L 292.058713 553.983691 
L 289.527639 557.585885 
L 286.812771 561.063139 
L 283.921367 564.405455 
L 280.859937 567.604724 
L 277.635743 570.652717 
L 274.257081 573.541042 
L 270.730637 576.263333 
L 267.06702 578.810832 
L 263.275584 581.176749 
L 259.362752 583.35653 
L 255.340306 585.343001 
L 251.217413 587.131174 
L 247.00532 588.71573 
L 242.721139 590.090423 
L 238.362911 591.255563 
L 233.97397 592.20076 
L 231.182364 592.686337 
L 231.182364 592.686337 
" clip-path="url(#p739eb1c212)" style="fill: none; stroke: #008000; stroke-opacity: 0.5; stroke-width: 1.5; stroke-linecap: square"/>
   </g>
   <g id="line2d_6">
    <path d="M 202.454 420.222754 
L 197.7261 421.097632 
L 193.328425 422.145104 
L 188.998878 423.404834 
L 184.743543 424.874091 
L 180.570038 426.5499 
L 176.486232 428.429247 
L 172.509025 430.504151 
L 168.646371 432.769813 
L 164.905872 435.221491 
L 161.30074 437.850018 
L 157.836198 440.651026 
L 154.522561 443.615805 
L 151.368481 446.735907 
L 148.381465 450.003065 
L 145.566615 453.411161 
L 142.933353 456.948087 
L 140.485497 460.607928 
L 138.230469 464.37889 
L 136.172375 468.253245 
L 134.316026 472.22138 
L 132.666357 476.271896 
L 131.226753 480.395408 
L 130.000195 484.582592 
L 128.989701 488.822353 
L 128.197574 493.103705 
L 127.625275 497.417567 
L 127.274139 501.753107 
L 127.144926 506.099586 
L 127.237933 510.448106 
L 127.552954 514.786308 
L 128.089182 519.1037 
L 128.845669 523.391582 
L 129.820461 527.637872 
L 131.011293 531.832307 
L 132.415413 535.964702 
L 134.030271 540.026611 
L 135.851577 544.00632 
L 137.87502 547.893891 
L 140.096721 551.681086 
L 142.511493 555.358106 
L 145.113505 558.915252 
L 147.896216 562.342937 
L 150.853741 565.633241 
L 153.978224 568.776786 
L 157.26253 571.76585 
L 160.698947 574.592801 
L 164.279069 577.250118 
L 167.993639 579.730413 
L 171.832333 582.02647 
L 175.788806 584.13398 
L 179.851102 586.045983 
L 184.008466 587.7571 
L 188.252297 589.26338 
L 192.569474 590.559816 
L 196.948642 591.642895 
L 201.381839 592.510333 
L 205.854973 593.15905 
L 210.356714 593.587296 
L 214.872633 593.793811 
L 219.393074 593.778353 
L 223.905863 593.541076 
L 228.376393 593.08568 
L 231.182364 592.686337 
L 231.182364 592.686337 
" clip-path="url(#p739eb1c212)" style="fill: none; stroke: #008000; stroke-opacity: 0.5; stroke-width: 1.5; stroke-linecap: square"/>
   </g>
  </g>
  <g id="axes_4">
   <g id="Quiver_7">
    <path d="M 521.946435 505.888842 
L 536.673029 525.79362 
L 537.63656 523.897595 
L 540.999746 533.240879 
L 533.048856 527.291818 
L 535.143794 526.925028 
L 520.417201 507.020249 
L 521.946435 505.888842 
" clip-path="url(#pd6d7673f59)" style="fill: #ff0000"/>
   </g>
   <g id="Quiver_8">
    <path d="M 521.147985 505.504011 
L 634.716748 501.461684 
L 633.698547 499.594448 
L 643.305391 502.107722 
L 633.901545 505.297655 
L 634.784414 503.362753 
L 521.215651 507.40508 
L 521.147985 505.504011 
" clip-path="url(#pd6d7673f59)" style="fill: #0000ff"/>
   </g>
   <g id="line2d_7">
    <path d="M 501.363891 479.668211 
L 512.815434 479.379925 
L 524.001897 479.324858 
L 535.173625 479.491901 
L 546.19491 479.878187 
L 556.941514 480.47604 
L 567.290723 481.272785 
L 577.133599 482.251405 
L 586.379291 483.391489 
L 594.954281 484.669814 
L 602.807431 486.061805 
L 609.905207 487.541715 
L 616.23691 489.084632 
L 621.805884 490.665694 
L 626.633684 492.262141 
L 630.755364 493.85348 
L 634.21597 495.421612 
L 637.069508 496.951969 
L 639.373616 498.432603 
L 641.189445 499.855838 
L 642.577477 501.217872 
L 643.59521 502.519408 
L 644.293646 503.764679 
L 644.715956 504.963144 
L 644.894075 506.129613 
L 644.845624 507.280503 
L 644.57322 508.434416 
L 644.064598 509.608284 
L 643.293976 510.816769 
L 642.225084 512.069962 
L 640.812856 513.374413 
L 639.006953 514.731915 
L 636.753438 516.14054 
L 633.996276 517.595133 
L 630.681094 519.086632 
L 626.755981 520.603141 
L 622.1743 522.129823 
L 616.898565 523.648768 
L 610.90068 525.140083 
L 604.166132 526.581741 
L 596.693329 527.950704 
L 588.504282 529.221997 
L 579.632373 530.371888 
L 570.131559 531.377013 
L 560.075486 532.215505 
L 549.580285 532.866737 
L 540.999746 533.240879 
L 540.999746 533.240879 
" clip-path="url(#pd6d7673f59)" style="fill: none; stroke: #008000; stroke-opacity: 0.5; stroke-width: 1.5; stroke-linecap: square"/>
   </g>
   <g id="line2d_8">
    <path d="M 501.363891 479.668211 
L 490.110133 480.187539 
L 479.571886 480.898586 
L 469.49451 481.799419 
L 459.975506 482.871172 
L 451.097331 484.091665 
L 442.92142 485.436719 
L 435.487577 486.881273 
L 428.817222 488.399823 
L 422.914887 489.966914 
L 417.763892 491.559497 
L 413.336681 493.155459 
L 409.591223 494.735952 
L 406.477573 496.28461 
L 403.938839 497.788611 
L 401.915728 499.237971 
L 400.346983 500.62717 
L 399.173259 501.955023 
L 398.340517 503.224003 
L 397.801458 504.441841 
L 397.519169 505.620299 
L 397.469352 506.775636 
L 397.642654 507.925781 
L 398.04494 509.08867 
L 398.696583 510.280622 
L 399.629313 511.513155 
L 400.8848 512.794681 
L 402.511348 514.128982 
L 404.561754 515.515825 
L 407.090751 516.951065 
L 410.154468 518.427755 
L 413.80628 519.935198 
L 418.094859 521.459563 
L 423.062766 522.984492 
L 428.741869 524.490705 
L 435.153144 525.957112 
L 442.30338 527.360926 
L 450.183314 528.678286 
L 458.762294 529.884439 
L 467.994595 530.95572 
L 477.815983 531.869673 
L 488.135437 532.605345 
L 498.856601 533.145822 
L 509.856235 533.477344 
L 521.022116 533.591261 
L 532.181712 533.483816 
L 540.999746 533.240879 
L 540.999746 533.240879 
" clip-path="url(#pd6d7673f59)" style="fill: none; stroke: #008000; stroke-opacity: 0.5; stroke-width: 1.5; stroke-linecap: square"/>
   </g>
   <g id="text_1">
    <!-- M -->
    <g transform="translate(362.659091 197.590909)scale(0.1 -0.1)">
     <defs>
      <path id="DejaVuSans-4d" d="M 628 4666 
L 1569 4666 
L 2759 1491 
L 3956 4666 
L 4897 4666 
L 4897 0 
L 4281 0 
L 4281 4097 
L 3078 897 
L 2444 897 
L 1241 4097 
L 1241 0 
L 628 0 
L 628 4666 
z
" transform="scale(0.015625)"/>
     </defs>
     <use xlink:href="#DejaVuSans-4d"/>
    </g>
   </g>
   <g id="text_2">
    <!-- S -->
    <g transform="translate(362.659091 494.1)scale(0.1 -0.1)">
     <defs>
      <path id="DejaVuSans-53" d="M 3425 4513 
L 3425 3897 
Q 3066 4069 2747 4153 
Q 2428 4238 2131 4238 
Q 1616 4238 1336 4038 
Q 1056 3838 1056 3469 
Q 1056 3159 1242 3001 
Q 1428 2844 1947 2747 
L 2328 2669 
Q 3034 2534 3370 2195 
Q 3706 1856 3706 1288 
Q 3706 609 3251 259 
Q 2797 -91 1919 -91 
Q 1588 -91 1214 -16 
Q 841 59 441 206 
L 441 856 
Q 825 641 1194 531 
Q 1563 422 1919 422 
Q 2459 422 2753 634 
Q 3047 847 3047 1241 
Q 3047 1584 2836 1778 
Q 2625 1972 2144 2069 
L 1759 2144 
Q 1053 2284 737 2584 
Q 422 2884 422 3419 
Q 422 4038 858 4394 
Q 1294 4750 2059 4750 
Q 2388 4750 2728 4690 
Q 3069 4631 3425 4513 
z
" transform="scale(0.015625)"/>
     </defs>
     <use xlink:href="#DejaVuSans-53"/>
    </g>
   </g>
   <g id="text_3">
    <!-- V -->
    <g transform="translate(226.329545 358.2)scale(0.1 -0.1)">
     <defs>
      <path id="DejaVuSans-56" d="M 1831 0 
L 50 4666 
L 709 4666 
L 2188 738 
L 3669 4666 
L 4325 4666 
L 2547 0 
L 1831 0 
z
" transform="scale(0.015625)"/>
     </defs>
     <use xlink:href="#DejaVuSans-56"/>
    </g>
   </g>
   <g id="text_4">
    <!-- U -->
    <g transform="translate(527.522727 364.377273)scale(0.1 -0.1)">
     <defs>
      <path id="DejaVuSans-55" d="M 556 4666 
L 1191 4666 
L 1191 1831 
Q 1191 1081 1462 751 
Q 1734 422 2344 422 
Q 2950 422 3222 751 
Q 3494 1081 3494 1831 
L 3494 4666 
L 4128 4666 
L 4128 1753 
Q 4128 841 3676 375 
Q 3225 -91 2344 -91 
Q 1459 -91 1007 375 
Q 556 841 556 1753 
L 556 4666 
z
" transform="scale(0.015625)"/>
     </defs>
     <use xlink:href="#DejaVuSans-55"/>
    </g>
   </g>
  </g>
  <g id="patch_2">
   <path d="M 343.636364 209.945455 
Q 369 209.945455 393.245602 209.945455 
" style="fill: none; stroke: #000000; stroke-linecap: round"/>
   <path d="M 385.245602 205.945455 
L 393.245602 209.945455 
L 385.245602 213.945455 
L 385.245602 205.945455 
z
" style="stroke: #000000; stroke-linecap: round"/>
  </g>
  <g id="patch_3">
   <path d="M 343.636364 506.454545 
Q 369 506.454545 393.245602 506.454545 
" style="fill: none; stroke: #000000; stroke-linecap: round"/>
   <path d="M 385.245602 502.454545 
L 393.245602 506.454545 
L 385.245602 510.454545 
L 385.245602 502.454545 
z
" style="stroke: #000000; stroke-linecap: round"/>
  </g>
  <g id="patch_4">
   <path d="M 216.818182 333.490909 
Q 216.818182 358.2 216.818182 381.791057 
" style="fill: none; stroke: #000000; stroke-linecap: round"/>
   <path d="M 220.818182 373.791057 
L 216.818182 381.791057 
L 212.818182 373.791057 
L 220.818182 373.791057 
z
" style="stroke: #000000; stroke-linecap: round"/>
  </g>
  <g id="patch_5">
   <path d="M 521.181818 334.608943 
Q 521.181818 358.2 521.181818 382.909091 
" style="fill: none; stroke: #000000; stroke-linecap: round"/>
   <path d="M 517.181818 342.608943 
L 521.181818 334.608943 
L 525.181818 342.608943 
L 517.181818 342.608943 
z
" style="stroke: #000000; stroke-linecap: round"/>
  </g>
 </g>
 <defs>
  <clipPath id="paaef03edea">
   <rect x="90" y="86.4" width="253.636364" height="247.090909"/>
  </clipPath>
  <clipPath id="p1eadeed0e1">
   <rect x="394.363636" y="86.4" width="253.636364" height="247.090909"/>
  </clipPath>
  <clipPath id="p739eb1c212">
   <rect x="90" y="382.909091" width="253.636364" height="247.090909"/>
  </clipPath>
  <clipPath id="pd6d7673f59">
   <rect x="394.363636" y="382.909091" width="253.636364" height="247.090909"/>
  </clipPath>
 </defs>
</svg>
