<?xml version="1.0" encoding="utf-8" standalone="no"?>
<!DOCTYPE svg PUBLIC "-//W3C//DTD SVG 1.1//EN"
  "http://www.w3.org/Graphics/SVG/1.1/DTD/svg11.dtd">
<svg xmlns:xlink="http://www.w3.org/1999/xlink" width="360pt" height="360pt" viewBox="0 0 360 360" xmlns="http://www.w3.org/2000/svg" version="1.1">
 <metadata>
  <rdf:RDF xmlns:dc="http://purl.org/dc/elements/1.1/" xmlns:cc="http://creativecommons.org/ns#" xmlns:rdf="http://www.w3.org/1999/02/22-rdf-syntax-ns#">
   <cc:Work>
    <dc:type rdf:resource="http://purl.org/dc/dcmitype/StillImage"/>
    <dc:date>2022-05-27T14:08:44.636995</dc:date>
    <dc:format>image/svg+xml</dc:format>
    <dc:creator>
     <cc:Agent>
      <dc:title>Matplotlib v3.5.2, https://matplotlib.org/</dc:title>
     </cc:Agent>
    </dc:creator>
   </cc:Work>
  </rdf:RDF>
 </metadata>
 <defs>
  <style type="text/css">*{stroke-linejoin: round; stroke-linecap: butt}</style>
 </defs>
 <g id="figure_1">
  <g id="patch_1">
   <path d="M 0 360 
L 360 360 
L 360 0 
L 0 0 
L 0 360 
z
" style="fill: none"/>
  </g>
  <g id="axes_1">
   <g id="patch_2">
    <path d="M 48.6 315 
L 320.4 315 
L 320.4 43.2 
L 48.6 43.2 
L 48.6 315 
z
" style="fill: none"/>
   </g>
   <g id="Quiver_1">
    <path d="M 184.5 178.08075 
L 220.62675 178.08075 
L 219.6075 176.04225 
L 229.8 179.1 
L 219.6075 182.15775 
L 220.62675 180.11925 
L 184.5 180.11925 
L 184.5 178.08075 
" clip-path="url(#pb579fe21de)" style="fill: #0000ff"/>
   </g>
   <g id="Quiver_2">
    <path d="M 183.651933 178.534622 
L 269.163529 50.267227 
L 266.902016 49.984538 
L 275.1 43.2 
L 271.99042 53.376807 
L 270.859664 51.397984 
L 185.348067 179.665378 
L 183.651933 178.534622 
" clip-path="url(#pb579fe21de)" style="fill: #ff0000"/>
   </g>
   <g id="matplotlib.axis_1">
    <g id="xtick_1">
     <g id="line2d_1">
      <defs>
       <path id="m207e82b603" d="M 0 0 
L 0 2 
" style="stroke: #000000; stroke-width: 0.6"/>
      </defs>
      <g>
       <use xlink:href="#m207e82b603" x="48.6" y="179.1" style="stroke: #000000; stroke-width: 0.6"/>
      </g>
     </g>
    </g>
    <g id="xtick_2">
     <g id="line2d_2">
      <g>
       <use xlink:href="#m207e82b603" x="93.9" y="179.1" style="stroke: #000000; stroke-width: 0.6"/>
      </g>
     </g>
    </g>
    <g id="xtick_3">
     <g id="line2d_3">
      <g>
       <use xlink:href="#m207e82b603" x="139.2" y="179.1" style="stroke: #000000; stroke-width: 0.6"/>
      </g>
     </g>
    </g>
    <g id="xtick_4">
     <g id="line2d_4">
      <g>
       <use xlink:href="#m207e82b603" x="184.5" y="179.1" style="stroke: #000000; stroke-width: 0.6"/>
      </g>
     </g>
    </g>
    <g id="xtick_5">
     <g id="line2d_5">
      <g>
       <use xlink:href="#m207e82b603" x="229.8" y="179.1" style="stroke: #000000; stroke-width: 0.6"/>
      </g>
     </g>
    </g>
    <g id="xtick_6">
     <g id="line2d_6">
      <g>
       <use xlink:href="#m207e82b603" x="275.1" y="179.1" style="stroke: #000000; stroke-width: 0.6"/>
      </g>
     </g>
    </g>
    <g id="xtick_7">
     <g id="line2d_7">
      <g>
       <use xlink:href="#m207e82b603" x="320.4" y="179.1" style="stroke: #000000; stroke-width: 0.6"/>
      </g>
     </g>
    </g>
    <g id="text_1">
     <!-- $x$ -->
     <g transform="translate(321.636 171.137812)scale(0.14 -0.14)">
      <defs>
       <path id="DejaVuSans-Oblique-78" d="M 3841 3500 
L 2234 1784 
L 3219 0 
L 2559 0 
L 1819 1388 
L 531 0 
L -166 0 
L 1556 1844 
L 641 3500 
L 1300 3500 
L 1972 2234 
L 3144 3500 
L 3841 3500 
z
" transform="scale(0.015625)"/>
      </defs>
      <use xlink:href="#DejaVuSans-Oblique-78" transform="translate(0 0.3125)"/>
     </g>
    </g>
   </g>
   <g id="matplotlib.axis_2">
    <g id="ytick_1">
     <g id="line2d_8">
      <defs>
       <path id="m2f1b2ef1f6" d="M 0 0 
L -2 0 
" style="stroke: #000000; stroke-width: 0.6"/>
      </defs>
      <g>
       <use xlink:href="#m2f1b2ef1f6" x="184.5" y="315" style="stroke: #000000; stroke-width: 0.6"/>
      </g>
     </g>
    </g>
    <g id="ytick_2">
     <g id="line2d_9">
      <g>
       <use xlink:href="#m2f1b2ef1f6" x="184.5" y="269.7" style="stroke: #000000; stroke-width: 0.6"/>
      </g>
     </g>
    </g>
    <g id="ytick_3">
     <g id="line2d_10">
      <g>
       <use xlink:href="#m2f1b2ef1f6" x="184.5" y="224.4" style="stroke: #000000; stroke-width: 0.6"/>
      </g>
     </g>
    </g>
    <g id="ytick_4">
     <g id="line2d_11">
      <g>
       <use xlink:href="#m2f1b2ef1f6" x="184.5" y="179.1" style="stroke: #000000; stroke-width: 0.6"/>
      </g>
     </g>
    </g>
    <g id="ytick_5">
     <g id="line2d_12">
      <g>
       <use xlink:href="#m2f1b2ef1f6" x="184.5" y="133.8" style="stroke: #000000; stroke-width: 0.6"/>
      </g>
     </g>
    </g>
    <g id="ytick_6">
     <g id="line2d_13">
      <g>
       <use xlink:href="#m2f1b2ef1f6" x="184.5" y="88.5" style="stroke: #000000; stroke-width: 0.6"/>
      </g>
     </g>
    </g>
    <g id="ytick_7">
     <g id="line2d_14">
      <g>
       <use xlink:href="#m2f1b2ef1f6" x="184.5" y="43.2" style="stroke: #000000; stroke-width: 0.6"/>
      </g>
     </g>
    </g>
    <g id="text_2">
     <!-- $y$ -->
     <g transform="translate(195.9 34.824)scale(0.14 -0.14)">
      <defs>
       <path id="DejaVuSans-Oblique-79" d="M 1588 -325 
Q 1188 -997 936 -1164 
Q 684 -1331 294 -1331 
L -159 -1331 
L -63 -850 
L 269 -850 
Q 509 -850 678 -719 
Q 847 -588 1056 -206 
L 1234 128 
L 459 3500 
L 1069 3500 
L 1650 819 
L 3256 3500 
L 3859 3500 
L 1588 -325 
z
" transform="scale(0.015625)"/>
      </defs>
      <use xlink:href="#DejaVuSans-Oblique-79" transform="translate(0 0.3125)"/>
     </g>
    </g>
   </g>
   <g id="line2d_15">
    <path d="M 139.2 179.1 
L 146.587197 168.236647 
L 153.948243 157.816147 
L 161.495982 147.516516 
L 169.172391 137.416637 
L 176.90558 127.608032 
L 184.628546 118.169466 
L 192.275629 109.172247 
L 199.782199 100.680703 
L 207.091296 92.744938 
L 214.148506 85.407167 
L 220.910072 78.693609 
L 227.335533 72.622827 
L 233.394655 67.199404 
L 239.067383 62.415368 
L 244.33814 58.256033 
L 249.200904 54.696457 
L 253.657331 51.704256 
L 257.71386 49.242594 
L 261.382436 47.270447 
L 264.681981 45.743126 
L 267.631869 44.616618 
L 270.257495 43.846041 
L 272.584261 43.389211 
L 274.639231 43.206891 
L 276.450994 43.264351 
L 278.047616 43.533085 
L 279.455771 43.992107 
L 280.699841 44.629305 
L 281.799198 45.441442 
L 282.76803 46.434418 
L 283.61448 47.6232 
L 284.338844 49.029085 
L 284.934721 50.679343 
L 285.389179 52.605602 
L 285.683354 54.841597 
L 285.793665 57.422696 
L 285.692697 60.384589 
L 285.35023 63.761731 
L 284.734149 67.587346 
L 283.810789 71.894265 
L 282.547172 76.707493 
L 280.909732 82.052917 
L 278.868548 87.944159 
L 276.396509 94.38927 
L 273.468449 101.393385 
L 270.066722 108.946276 
L 266.17971 117.02868 
L 261.804061 125.60893 
L 256.941191 134.650926 
L 251.601505 144.106446 
L 245.80462 153.916165 
L 239.592327 163.990216 
L 233.011909 174.238647 
L 229.8 179.1 
L 229.8 179.1 
" clip-path="url(#pb579fe21de)" style="fill: none; stroke: #008000; stroke-opacity: 0.5; stroke-width: 1.5; stroke-linecap: square"/>
   </g>
   <g id="line2d_16">
    <path d="M 139.2 179.1 
L 132.124451 189.929406 
L 125.664848 200.229008 
L 119.620171 210.282668 
L 114.014616 220.033705 
L 108.879664 229.40772 
L 104.235399 238.343329 
L 100.091519 246.792008 
L 96.450065 254.714003 
L 93.304706 262.080759 
L 90.641174 268.875626 
L 88.438249 275.093738 
L 86.670489 280.736567 
L 85.307479 285.815759 
L 84.315267 290.352344 
L 83.658519 294.372145 
L 83.301283 297.904623 
L 83.207661 300.985962 
L 83.343533 303.652391 
L 83.677402 305.943 
L 84.181344 307.895602 
L 84.832594 309.548418 
L 85.61377 310.935677 
L 86.514746 312.088875 
L 87.532267 313.033279 
L 88.67166 313.788082 
L 89.94368 314.36297 
L 91.365541 314.759303 
L 92.959559 314.969428 
L 94.748397 314.977017 
L 96.758431 314.758817 
L 99.016671 314.285181 
L 101.547534 313.522205 
L 104.377356 312.431744 
L 107.529264 310.973668 
L 111.024537 309.106548 
L 114.880322 306.789713 
L 119.113316 303.981812 
L 123.731 300.647159 
L 128.740339 296.750845 
L 134.14016 292.264731 
L 139.921132 287.168837 
L 146.071104 281.447416 
L 152.564657 275.099185 
L 159.373308 268.128815 
L 166.459445 260.553314 
L 173.776845 252.402603 
L 181.271477 243.719677 
L 188.887627 234.554132 
L 196.562724 224.968568 
L 204.228215 215.038633 
L 211.82033 204.839598 
L 219.259387 194.474676 
L 226.478967 184.036702 
L 229.8 179.1 
L 229.8 179.1 
" clip-path="url(#pb579fe21de)" style="fill: none; stroke: #008000; stroke-opacity: 0.5; stroke-width: 1.5; stroke-linecap: square"/>
   </g>
   <g id="patch_3">
    <path d="M 184.5 315 
L 184.5 43.2 
" style="fill: none; stroke: #000000; stroke-width: 0.8; stroke-linejoin: miter; stroke-linecap: square"/>
   </g>
   <g id="patch_4">
    <path d="M 48.6 179.1 
L 320.4 179.1 
" style="fill: none; stroke: #000000; stroke-width: 0.8; stroke-linejoin: miter; stroke-linecap: square"/>
   </g>
   <g id="text_3">
    <!-- $O$ -->
    <g transform="translate(170.722 192.455812)scale(0.14 -0.14)">
     <defs>
      <path id="DejaVuSans-Oblique-4f" d="M 2919 4238 
Q 2400 4238 2003 3986 
Q 1606 3734 1313 3219 
Q 1125 2891 1026 2522 
Q 928 2153 928 1778 
Q 928 1128 1239 775 
Q 1550 422 2119 422 
Q 2631 422 3032 676 
Q 3434 931 3719 1434 
Q 3909 1772 4009 2142 
Q 4109 2513 4109 2881 
Q 4109 3528 3796 3883 
Q 3484 4238 2919 4238 
z
M 2100 -91 
Q 1241 -91 748 418 
Q 256 928 256 1813 
Q 256 2319 448 2847 
Q 641 3375 978 3788 
Q 1375 4272 1862 4511 
Q 2350 4750 2938 4750 
Q 3794 4750 4287 4245 
Q 4781 3741 4781 2869 
Q 4781 2331 4593 1812 
Q 4406 1294 4056 872 
Q 3656 384 3173 146 
Q 2691 -91 2100 -91 
z
" transform="scale(0.015625)"/>
     </defs>
     <use xlink:href="#DejaVuSans-Oblique-4f" transform="translate(0 0.78125)"/>
    </g>
   </g>
  </g>
 </g>
 <defs>
  <clipPath id="pb579fe21de">
   <rect x="48.6" y="43.2" width="271.8" height="271.8"/>
  </clipPath>
 </defs>
</svg>
