<?xml version="1.0" encoding="utf-8" standalone="no"?>
<!DOCTYPE svg PUBLIC "-//W3C//DTD SVG 1.1//EN"
  "http://www.w3.org/Graphics/SVG/1.1/DTD/svg11.dtd">
<svg xmlns:xlink="http://www.w3.org/1999/xlink" width="360pt" height="360pt" viewBox="0 0 360 360" xmlns="http://www.w3.org/2000/svg" version="1.1">
 <metadata>
  <rdf:RDF xmlns:dc="http://purl.org/dc/elements/1.1/" xmlns:cc="http://creativecommons.org/ns#" xmlns:rdf="http://www.w3.org/1999/02/22-rdf-syntax-ns#">
   <cc:Work>
    <dc:type rdf:resource="http://purl.org/dc/dcmitype/StillImage"/>
    <dc:date>2022-05-27T14:24:21.503527</dc:date>
    <dc:format>image/svg+xml</dc:format>
    <dc:creator>
     <cc:Agent>
      <dc:title>Matplotlib v3.5.2, https://matplotlib.org/</dc:title>
     </cc:Agent>
    </dc:creator>
   </cc:Work>
  </rdf:RDF>
 </metadata>
 <defs>
  <style type="text/css">*{stroke-linejoin: round; stroke-linecap: butt}</style>
 </defs>
 <g id="figure_1">
  <g id="patch_1">
   <path d="M 0 360 
L 360 360 
L 360 0 
L 0 0 
L 0 360 
z
" style="fill: none"/>
  </g>
  <g id="axes_1">
   <g id="patch_2">
    <path d="M 48.6 315 
L 320.4 315 
L 320.4 43.2 
L 48.6 43.2 
L 48.6 315 
z
" style="fill: none"/>
   </g>
   <g id="Quiver_1">
    <path d="M 185.326859 178.504034 
L 199.828697 198.62426 
L 200.886448 196.60547 
L 204.365532 206.661953 
L 195.925296 200.181265 
L 198.174979 199.816192 
L 183.673141 179.695966 
L 185.326859 178.504034 
" clip-path="url(#pc1b924b16b)" style="fill: #0000ff"/>
   </g>
   <g id="Quiver_2">
    <path d="M 184.462785 178.08143 
L 297.712575 173.943676 
L 296.619575 171.94375 
L 306.916924 174.627311 
L 296.842865 178.055172 
L 297.787006 175.980816 
L 184.537215 180.11857 
L 184.462785 178.08143 
" clip-path="url(#pc1b924b16b)" style="fill: #ff0000"/>
   </g>
   <g id="matplotlib.axis_1">
    <g id="xtick_1">
     <g id="line2d_1">
      <defs>
       <path id="m849577c7a0" d="M 0 0 
L 0 2 
" style="stroke: #000000; stroke-width: 0.6"/>
      </defs>
      <g>
       <use xlink:href="#m849577c7a0" x="48.6" y="179.1" style="stroke: #000000; stroke-width: 0.6"/>
      </g>
     </g>
    </g>
    <g id="xtick_2">
     <g id="line2d_2">
      <g>
       <use xlink:href="#m849577c7a0" x="82.575" y="179.1" style="stroke: #000000; stroke-width: 0.6"/>
      </g>
     </g>
    </g>
    <g id="xtick_3">
     <g id="line2d_3">
      <g>
       <use xlink:href="#m849577c7a0" x="116.55" y="179.1" style="stroke: #000000; stroke-width: 0.6"/>
      </g>
     </g>
    </g>
    <g id="xtick_4">
     <g id="line2d_4">
      <g>
       <use xlink:href="#m849577c7a0" x="150.525" y="179.1" style="stroke: #000000; stroke-width: 0.6"/>
      </g>
     </g>
    </g>
    <g id="xtick_5">
     <g id="line2d_5">
      <g>
       <use xlink:href="#m849577c7a0" x="184.5" y="179.1" style="stroke: #000000; stroke-width: 0.6"/>
      </g>
     </g>
    </g>
    <g id="xtick_6">
     <g id="line2d_6">
      <g>
       <use xlink:href="#m849577c7a0" x="218.475" y="179.1" style="stroke: #000000; stroke-width: 0.6"/>
      </g>
     </g>
    </g>
    <g id="xtick_7">
     <g id="line2d_7">
      <g>
       <use xlink:href="#m849577c7a0" x="252.45" y="179.1" style="stroke: #000000; stroke-width: 0.6"/>
      </g>
     </g>
    </g>
    <g id="xtick_8">
     <g id="line2d_8">
      <g>
       <use xlink:href="#m849577c7a0" x="286.425" y="179.1" style="stroke: #000000; stroke-width: 0.6"/>
      </g>
     </g>
    </g>
    <g id="xtick_9">
     <g id="line2d_9">
      <g>
       <use xlink:href="#m849577c7a0" x="320.4" y="179.1" style="stroke: #000000; stroke-width: 0.6"/>
      </g>
     </g>
    </g>
    <g id="text_1">
     <!-- $x$ -->
     <g transform="translate(321.636 171.137812)scale(0.14 -0.14)">
      <defs>
       <path id="DejaVuSans-Oblique-78" d="M 3841 3500 
L 2234 1784 
L 3219 0 
L 2559 0 
L 1819 1388 
L 531 0 
L -166 0 
L 1556 1844 
L 641 3500 
L 1300 3500 
L 1972 2234 
L 3144 3500 
L 3841 3500 
z
" transform="scale(0.015625)"/>
      </defs>
      <use xlink:href="#DejaVuSans-Oblique-78" transform="translate(0 0.3125)"/>
     </g>
    </g>
   </g>
   <g id="matplotlib.axis_2">
    <g id="ytick_1">
     <g id="line2d_10">
      <defs>
       <path id="m7b5d7ac51d" d="M 0 0 
L -2 0 
" style="stroke: #000000; stroke-width: 0.6"/>
      </defs>
      <g>
       <use xlink:href="#m7b5d7ac51d" x="184.5" y="315" style="stroke: #000000; stroke-width: 0.6"/>
      </g>
     </g>
    </g>
    <g id="ytick_2">
     <g id="line2d_11">
      <g>
       <use xlink:href="#m7b5d7ac51d" x="184.5" y="281.025" style="stroke: #000000; stroke-width: 0.6"/>
      </g>
     </g>
    </g>
    <g id="ytick_3">
     <g id="line2d_12">
      <g>
       <use xlink:href="#m7b5d7ac51d" x="184.5" y="247.05" style="stroke: #000000; stroke-width: 0.6"/>
      </g>
     </g>
    </g>
    <g id="ytick_4">
     <g id="line2d_13">
      <g>
       <use xlink:href="#m7b5d7ac51d" x="184.5" y="213.075" style="stroke: #000000; stroke-width: 0.6"/>
      </g>
     </g>
    </g>
    <g id="ytick_5">
     <g id="line2d_14">
      <g>
       <use xlink:href="#m7b5d7ac51d" x="184.5" y="179.1" style="stroke: #000000; stroke-width: 0.6"/>
      </g>
     </g>
    </g>
    <g id="ytick_6">
     <g id="line2d_15">
      <g>
       <use xlink:href="#m7b5d7ac51d" x="184.5" y="145.125" style="stroke: #000000; stroke-width: 0.6"/>
      </g>
     </g>
    </g>
    <g id="ytick_7">
     <g id="line2d_16">
      <g>
       <use xlink:href="#m7b5d7ac51d" x="184.5" y="111.15" style="stroke: #000000; stroke-width: 0.6"/>
      </g>
     </g>
    </g>
    <g id="ytick_8">
     <g id="line2d_17">
      <g>
       <use xlink:href="#m7b5d7ac51d" x="184.5" y="77.175" style="stroke: #000000; stroke-width: 0.6"/>
      </g>
     </g>
    </g>
    <g id="ytick_9">
     <g id="line2d_18">
      <g>
       <use xlink:href="#m7b5d7ac51d" x="184.5" y="43.2" style="stroke: #000000; stroke-width: 0.6"/>
      </g>
     </g>
    </g>
    <g id="text_2">
     <!-- $y$ -->
     <g transform="translate(195.9 34.824)scale(0.14 -0.14)">
      <defs>
       <path id="DejaVuSans-Oblique-79" d="M 1588 -325 
Q 1188 -997 936 -1164 
Q 684 -1331 294 -1331 
L -159 -1331 
L -63 -850 
L 269 -850 
Q 509 -850 678 -719 
Q 847 -588 1056 -206 
L 1234 128 
L 459 3500 
L 1069 3500 
L 1650 819 
L 3256 3500 
L 3859 3500 
L 1588 -325 
z
" transform="scale(0.015625)"/>
      </defs>
      <use xlink:href="#DejaVuSans-Oblique-79" transform="translate(0 0.3125)"/>
     </g>
    </g>
   </g>
   <g id="line2d_19">
    <path d="M 164.634468 151.538047 
L 175.952865 151.243887 
L 187.012422 151.183226 
L 198.058004 151.344854 
L 208.962288 151.726069 
L 219.603953 152.31942 
L 229.861963 153.112359 
L 239.63624 154.08874 
L 248.840149 155.229097 
L 257.39624 156.510237 
L 265.255756 157.908479 
L 272.383494 159.398521 
L 278.764978 160.955432 
L 284.401914 162.554822 
L 289.312288 164.173968 
L 293.527837 165.792476 
L 297.089315 167.391884 
L 300.047157 168.957336 
L 302.455906 170.476656 
L 304.373461 171.941505 
L 305.857421 173.346949 
L 306.96327 174.692094 
L 307.742044 175.980732 
L 308.237331 177.221455 
L 308.482248 178.42663 
L 308.497472 179.611909 
L 308.289717 180.794585 
L 307.851111 181.992485 
L 307.160899 183.219945 
L 306.187256 184.488312 
L 304.889334 185.805302 
L 303.219999 187.174333 
L 301.128739 188.594423 
L 298.562892 190.061272 
L 295.468683 191.567793 
L 291.796271 193.102795 
L 287.499161 194.6527 
L 282.536517 196.201463 
L 276.879026 197.729785 
L 270.506994 199.21689 
L 263.417739 200.639677 
L 255.618206 201.975263 
L 247.137266 203.199397 
L 238.023207 204.28825 
L 228.328998 205.220651 
L 218.150463 205.974993 
L 207.642891 206.532026 
L 204.365532 206.661953 
L 204.365532 206.661953 
" clip-path="url(#pc1b924b16b)" style="fill: none; stroke: #008000; stroke-opacity: 0.5; stroke-width: 1.5; stroke-linecap: square"/>
   </g>
   <g id="line2d_20">
    <path d="M 164.634468 151.538047 
L 153.509939 152.063308 
L 143.088948 152.780117 
L 133.114062 153.687129 
L 123.675707 154.766332 
L 114.860025 155.995342 
L 106.721808 157.351223 
L 99.305619 158.808585 
L 92.632955 160.342317 
L 86.707131 161.927967 
L 81.515972 163.542221 
L 77.033896 165.163381 
L 73.222591 166.77248 
L 70.035358 168.35312 
L 67.419158 169.891963 
L 65.317705 171.37862 
L 63.67205 172.807322 
L 62.425559 174.175614 
L 61.52518 175.485434 
L 60.924096 176.743583 
L 60.585002 177.960478 
L 60.481893 179.151212 
L 60.602585 180.332637 
L 60.949412 181.522774 
L 61.538161 182.736885 
L 62.397223 183.988644 
L 63.563743 185.286311 
L 65.082653 186.635035 
L 67.002998 188.035285 
L 69.37751 189.48457 
L 72.258994 190.976434 
L 75.699747 192.501612 
L 79.748308 194.04758 
L 84.446462 195.598668 
L 89.829353 197.137185 
L 95.92126 198.643008 
L 102.731486 200.093732 
L 110.256768 201.466281 
L 118.478365 202.737011 
L 127.35714 203.881893 
L 136.833079 204.87766 
L 146.835953 205.703683 
L 157.272925 206.341288 
L 168.033375 206.775281 
L 179.004441 206.995076 
L 190.063908 206.994389 
L 201.073868 206.772036 
L 204.365532 206.661953 
L 204.365532 206.661953 
" clip-path="url(#pc1b924b16b)" style="fill: none; stroke: #008000; stroke-opacity: 0.5; stroke-width: 1.5; stroke-linecap: square"/>
   </g>
   <g id="patch_3">
    <path d="M 184.5 315 
L 184.5 43.2 
" style="fill: none; stroke: #000000; stroke-width: 0.8; stroke-linejoin: miter; stroke-linecap: square"/>
   </g>
   <g id="patch_4">
    <path d="M 48.6 179.1 
L 320.4 179.1 
" style="fill: none; stroke: #000000; stroke-width: 0.8; stroke-linejoin: miter; stroke-linecap: square"/>
   </g>
   <g id="text_3">
    <!-- $O$ -->
    <g transform="translate(170.722 192.455812)scale(0.14 -0.14)">
     <defs>
      <path id="DejaVuSans-Oblique-4f" d="M 2919 4238 
Q 2400 4238 2003 3986 
Q 1606 3734 1313 3219 
Q 1125 2891 1026 2522 
Q 928 2153 928 1778 
Q 928 1128 1239 775 
Q 1550 422 2119 422 
Q 2631 422 3032 676 
Q 3434 931 3719 1434 
Q 3909 1772 4009 2142 
Q 4109 2513 4109 2881 
Q 4109 3528 3796 3883 
Q 3484 4238 2919 4238 
z
M 2100 -91 
Q 1241 -91 748 418 
Q 256 928 256 1813 
Q 256 2319 448 2847 
Q 641 3375 978 3788 
Q 1375 4272 1862 4511 
Q 2350 4750 2938 4750 
Q 3794 4750 4287 4245 
Q 4781 3741 4781 2869 
Q 4781 2331 4593 1812 
Q 4406 1294 4056 872 
Q 3656 384 3173 146 
Q 2691 -91 2100 -91 
z
" transform="scale(0.015625)"/>
     </defs>
     <use xlink:href="#DejaVuSans-Oblique-4f" transform="translate(0 0.78125)"/>
    </g>
   </g>
  </g>
 </g>
 <defs>
  <clipPath id="pc1b924b16b">
   <rect x="48.6" y="43.2" width="271.8" height="271.8"/>
  </clipPath>
 </defs>
</svg>
